<svg xmlns="http://www.w3.org/2000/svg" xmlns:xlink="http://www.w3.org/1999/xlink" width="1111" zoomAndPan="magnify" viewBox="0 0 833.25 833.249992" height="1111" preserveAspectRatio="xMidYMid meet" version="1.2"><defs><clipPath id="12348dfa94"><path d="M 0 37.453125 L 832.5 37.453125 L 832.5 795 L 0 795 Z M 0 37.453125 "/></clipPath></defs><g id="d9b964bbbf"><g clip-rule="nonzero" clip-path="url(#12348dfa94)"><path style=" stroke:none;fill-rule:nonzero;fill:#ffffff;fill-opacity:1;" d="M 525.21875 794.933594 C 520.460938 794.875 515.773438 794.273438 511.15625 793.128906 C 506.539062 791.984375 502.113281 790.324219 497.878906 788.152344 C 474.152344 776.53125 466.503906 756.347656 460.402344 740.105469 C 457.355469 731.539062 453.675781 723.25 449.363281 715.242188 C 444.535156 706.535156 438.5625 698.703125 431.449219 691.734375 C 425.058594 685.304688 419.242188 678.386719 414.003906 670.984375 C 408.765625 663.582031 404.175781 655.796875 400.238281 647.628906 C 398.625 644.398438 397.011719 640.976562 395.589844 637.585938 C 377.976562 640.054688 360.277344 641.324219 342.492188 641.394531 C 295.238281 641.394531 257.117188 631.03125 229.261719 610.558594 C 207.863281 594.867188 181.878906 564.738281 170.453125 508.199219 L 167.835938 508.199219 C 70.648438 508.199219 -8.5625 458.214844 -20.503906 389.371094 C -26.957031 352.53125 -11.980469 319.367188 4.996094 295.054688 C 4.121094 289.363281 3.707031 283.644531 3.757812 277.886719 C 3.808594 272.132812 4.320312 266.421875 5.292969 260.75 C 6.269531 255.078125 7.691406 249.519531 9.5625 244.078125 C 11.4375 238.636719 13.734375 233.378906 16.453125 228.308594 C 18.71875 224.1875 21.246094 220.238281 24.039062 216.453125 C 26.832031 212.671875 29.863281 209.09375 33.132812 205.714844 C 36.40625 202.339844 39.886719 199.195312 43.578125 196.285156 C 47.269531 193.375 51.140625 190.726562 55.1875 188.335938 C 56.050781 185.144531 57.046875 181.996094 58.171875 178.886719 C 59.296875 175.78125 60.546875 172.722656 61.921875 169.71875 C 63.300781 166.714844 64.800781 163.773438 66.417969 160.894531 C 68.039062 158.011719 69.777344 155.203125 71.628906 152.46875 C 73.480469 149.730469 75.441406 147.074219 77.515625 144.5 C 79.585938 141.925781 81.761719 139.441406 84.039062 137.046875 C 86.316406 134.652344 88.6875 132.355469 91.152344 130.15625 C 93.621094 127.957031 96.175781 125.867188 98.816406 123.878906 C 101.453125 121.890625 104.171875 120.015625 106.964844 118.253906 C 109.761719 116.492188 112.625 114.847656 115.554688 113.320312 C 118.484375 111.796875 121.472656 110.394531 124.519531 109.117188 C 127.566406 107.835938 130.660156 106.6875 133.804688 105.664062 C 136.945312 104.640625 140.125 103.75 143.339844 102.992188 C 146.554688 102.230469 149.796875 101.605469 153.0625 101.113281 C 156.332031 100.621094 159.613281 100.265625 162.910156 100.046875 C 166.203125 99.828125 169.503906 99.742188 172.808594 99.796875 C 174.421875 99.796875 176.035156 99.796875 177.519531 99.796875 C 180.230469 96.511719 183.113281 93.386719 186.167969 90.425781 C 189.226562 87.464844 192.4375 84.679688 195.808594 82.078125 C 199.175781 79.472656 202.675781 77.066406 206.3125 74.851562 C 209.949219 72.640625 213.699219 70.636719 217.558594 68.84375 C 221.417969 67.050781 225.367188 65.476562 229.402344 64.125 C 233.4375 62.773438 237.535156 61.648438 241.699219 60.753906 C 245.859375 59.859375 250.054688 59.199219 254.292969 58.773438 C 258.527344 58.347656 262.769531 58.15625 267.027344 58.207031 C 274.667969 58.222656 282.253906 58.890625 289.78125 60.207031 C 298.054688 54.953125 306.769531 50.582031 315.929688 47.097656 C 324.402344 43.875 333.097656 41.453125 342.015625 39.824219 C 350.933594 38.195312 359.925781 37.390625 368.992188 37.410156 C 386.527344 37.5 403.644531 40.210938 420.347656 45.546875 C 430.585938 42.589844 441.03125 41.101562 451.6875 41.09375 C 458.152344 41.089844 464.570312 41.644531 470.9375 42.761719 C 477.304688 43.878906 483.53125 45.539062 489.609375 47.738281 C 495.6875 49.941406 501.53125 52.652344 507.136719 55.875 C 512.742188 59.097656 518.027344 62.78125 522.988281 66.925781 C 528.511719 66.101562 534.0625 65.683594 539.644531 65.664062 C 550.859375 65.660156 561.8125 67.351562 572.503906 70.734375 C 579.859375 73.078125 586.898438 76.152344 593.613281 79.960938 C 600.328125 83.765625 606.578125 88.226562 612.367188 93.335938 C 614.851562 93.335938 617.371094 93.113281 619.921875 93.113281 C 623.257812 93.089844 626.59375 93.199219 629.921875 93.441406 C 633.25 93.683594 636.566406 94.058594 639.863281 94.566406 C 643.164062 95.074219 646.4375 95.710938 649.683594 96.480469 C 652.933594 97.25 656.148438 98.144531 659.324219 99.171875 C 662.5 100.195312 665.632812 101.347656 668.714844 102.621094 C 671.800781 103.898438 674.832031 105.292969 677.804688 106.8125 C 680.777344 108.328125 683.6875 109.960938 686.527344 111.710938 C 689.371094 113.460938 692.140625 115.320312 694.835938 117.292969 C 697.53125 119.261719 700.144531 121.335938 702.671875 123.515625 C 705.203125 125.695312 707.640625 127.972656 709.988281 130.34375 C 712.335938 132.71875 714.585938 135.183594 716.738281 137.734375 C 718.886719 140.289062 720.933594 142.925781 722.875 145.640625 C 724.816406 148.359375 726.644531 151.148438 728.363281 154.011719 C 730.082031 156.875 731.683594 159.800781 733.167969 162.792969 C 734.652344 165.78125 736.015625 168.828125 737.257812 171.925781 C 738.5 175.027344 739.617188 178.171875 740.605469 181.359375 C 744.429688 183.203125 748.125 185.273438 751.691406 187.574219 C 755.257812 189.875 758.667969 192.386719 761.921875 195.109375 C 765.179688 197.832031 768.253906 200.746094 771.148438 203.847656 C 774.042969 206.953125 776.734375 210.222656 779.222656 213.664062 C 781.714844 217.101562 783.980469 220.679688 786.027344 224.398438 C 788.074219 228.117188 789.882812 231.945312 791.453125 235.890625 C 793.027344 239.832031 794.347656 243.859375 795.421875 247.964844 C 796.496094 252.074219 797.308594 256.230469 797.867188 260.4375 C 799.390625 261.542969 800.875 262.699219 802.316406 263.910156 C 803.753906 265.121094 805.152344 266.382812 806.5 267.695312 C 807.847656 269.007812 809.148438 270.367188 810.402344 271.773438 C 811.652344 273.179688 812.851562 274.628906 813.996094 276.125 C 815.144531 277.617188 816.234375 279.148438 817.269531 280.722656 C 818.304688 282.292969 819.285156 283.898438 820.203125 285.542969 C 821.121094 287.183594 821.980469 288.859375 822.78125 290.5625 C 823.578125 292.269531 824.3125 294 824.988281 295.757812 C 825.660156 297.515625 826.269531 299.296875 826.8125 301.097656 C 827.359375 302.898438 827.835938 304.71875 828.25 306.554688 C 828.664062 308.390625 829.011719 310.242188 829.289062 312.101562 C 829.570312 313.964844 829.78125 315.835938 829.925781 317.710938 C 830.070312 319.589844 830.144531 321.46875 830.15625 323.351562 C 830.164062 325.234375 830.105469 327.113281 829.976562 328.992188 C 829.847656 330.871094 829.652344 332.742188 829.390625 334.605469 C 829.128906 336.46875 828.800781 338.320312 828.402344 340.164062 C 832.175781 345.277344 835.441406 350.699219 838.195312 356.425781 C 840.953125 362.15625 843.15625 368.089844 844.800781 374.226562 C 846.078125 379.050781 847 383.941406 847.570312 388.898438 C 848.136719 393.851562 848.34375 398.824219 848.1875 403.8125 C 848.03125 408.796875 847.515625 413.746094 846.640625 418.660156 C 845.761719 423.570312 844.539062 428.390625 842.960938 433.125 C 858.648438 463.929688 858.710938 499.160156 842.121094 526.992188 C 838.070312 533.703125 833.230469 539.78125 827.59375 545.226562 C 821.957031 550.675781 815.71875 555.304688 808.875 559.121094 C 805.191406 567.789062 800.589844 575.9375 795.074219 583.566406 C 789.554688 591.199219 783.253906 598.117188 776.175781 604.328125 C 767.496094 611.820312 736.25 636.328125 698 636.328125 L 694.773438 636.328125 C 689.007812 642.441406 682.8125 648.082031 676.179688 653.246094 C 670.503906 657.878906 664.554688 662.132812 658.335938 666.003906 C 652.117188 669.878906 645.679688 673.34375 639.019531 676.394531 C 632.359375 679.449219 625.53125 682.066406 618.539062 684.25 C 611.546875 686.433594 604.441406 688.164062 597.230469 689.445312 C 587.152344 691.316406 577.007812 692.652344 566.792969 693.449219 L 567.855469 695.191406 C 575.34375 707.300781 584.671875 722.410156 580.542969 744.757812 C 577.3125 761.96875 565.113281 784.796875 541.097656 792.480469 C 535.929688 794.113281 530.636719 794.929688 525.21875 794.933594 Z M 525.21875 794.933594 "/></g><path style=" stroke:none;fill-rule:nonzero;fill:#d85165;fill-opacity:1;" d="M 515.921875 649.046875 C 539.160156 666.648438 568.535156 661.609375 591.839844 657.605469 C 597.679688 656.5625 603.429688 655.160156 609.089844 653.390625 C 614.75 651.617188 620.277344 649.5 625.671875 647.027344 C 631.0625 644.558594 636.28125 641.757812 641.316406 638.628906 C 646.355469 635.496094 651.175781 632.058594 655.78125 628.320312 C 667.917969 618.308594 676.277344 611.429688 678.761719 600.097656 C 683.960938 576.234375 659.042969 551.210938 643.257812 540.167969 C 600.683594 510.136719 519.925781 508.199219 495.230469 553.988281 C 479.707031 582.949219 488.128906 628.058594 515.921875 649.046875 Z M 515.921875 649.046875 "/><path style=" stroke:none;fill-rule:nonzero;fill:#eb586e;fill-opacity:1;" d="M 416.375 599.320312 C 419.589844 611.070312 423.890625 622.40625 429.289062 633.324219 C 446.71875 668.585938 460.308594 668.195312 477.703125 699.550781 C 494.457031 729.710938 492.777344 749.632812 512.175781 759.15625 C 513.636719 759.976562 515.160156 760.652344 516.746094 761.179688 C 518.332031 761.707031 519.957031 762.082031 521.613281 762.300781 C 523.273438 762.519531 524.9375 762.578125 526.609375 762.480469 C 528.277344 762.378906 529.921875 762.121094 531.542969 761.707031 C 541.742188 758.480469 547.488281 747.273438 549.070312 738.878906 C 551.878906 723.605469 541.097656 716.277344 530.027344 693.1875 C 517.46875 666.96875 515.339844 642.882812 513.308594 620.117188 C 511.949219 605.054688 511.894531 589.984375 513.144531 574.910156 "/><path style=" stroke:none;fill-rule:nonzero;fill:#f5abbb;fill-opacity:1;" d="M 198.113281 474.164062 C 96.988281 485.757812 20.8125 437.871094 11.453125 383.753906 C 5.609375 350.109375 26.460938 318.820312 39.855469 302.578125 C 39.078125 300.167969 38.417969 297.730469 37.882812 295.257812 C 37.347656 292.78125 36.9375 290.289062 36.652344 287.773438 C 36.363281 285.261719 36.203125 282.738281 36.167969 280.207031 C 36.132812 277.679688 36.222656 275.152344 36.441406 272.632812 C 36.660156 270.109375 37 267.605469 37.46875 265.121094 C 37.933594 262.632812 38.523438 260.175781 39.234375 257.746094 C 39.949219 255.320312 40.78125 252.933594 41.730469 250.585938 C 42.679688 248.242188 43.746094 245.949219 44.921875 243.710938 C 47.039062 239.90625 49.46875 236.3125 52.210938 232.925781 C 54.953125 229.542969 57.964844 226.425781 61.25 223.566406 C 64.535156 220.710938 68.042969 218.15625 71.773438 215.914062 C 75.503906 213.667969 79.402344 211.761719 83.464844 210.195312 C 84.214844 204.5 85.488281 198.929688 87.285156 193.472656 C 89.078125 188.019531 91.367188 182.78125 94.144531 177.753906 C 96.921875 172.730469 100.144531 168.007812 103.808594 163.585938 C 107.472656 159.164062 111.511719 155.121094 115.933594 151.460938 C 148.988281 124.789062 188.109375 133.085938 193.046875 134.214844 C 196.660156 127.597656 201.078125 121.566406 206.292969 116.125 C 211.511719 110.679688 217.351562 106.011719 223.808594 102.121094 C 256.375 82.746094 290.65625 93.273438 296.496094 95.144531 C 305.898438 87.625 316.214844 81.703125 327.453125 77.386719 C 368.929688 61.5625 407.46875 74.867188 420.28125 79.9375 C 422.25 79.09375 424.246094 78.328125 426.273438 77.644531 C 428.304688 76.960938 430.355469 76.363281 432.433594 75.84375 C 434.507812 75.328125 436.605469 74.894531 438.714844 74.546875 C 440.828125 74.199219 442.949219 73.9375 445.082031 73.757812 C 447.214844 73.582031 449.351562 73.492188 451.492188 73.488281 C 453.632812 73.484375 455.769531 73.566406 457.902344 73.738281 C 460.035156 73.90625 462.160156 74.160156 464.273438 74.5 C 466.386719 74.839844 468.480469 75.265625 470.558594 75.777344 C 472.636719 76.285156 474.695312 76.878906 476.722656 77.554688 C 478.753906 78.230469 480.753906 78.988281 482.726562 79.824219 C 484.695312 80.664062 486.628906 81.578125 488.523438 82.574219 C 490.417969 83.566406 492.269531 84.636719 494.082031 85.78125 C 495.890625 86.921875 497.648438 88.136719 499.359375 89.421875 C 501.074219 90.710938 502.730469 92.0625 504.332031 93.480469 C 505.933594 94.902344 507.476562 96.382812 508.957031 97.929688 C 510.441406 99.472656 511.855469 101.074219 513.210938 102.734375 C 515.109375 102.046875 517.027344 101.4375 518.972656 100.898438 C 520.917969 100.363281 522.882812 99.902344 524.863281 99.519531 C 526.84375 99.136719 528.835938 98.832031 530.84375 98.605469 C 532.847656 98.378906 534.859375 98.230469 536.875 98.160156 C 538.890625 98.09375 540.90625 98.101562 542.921875 98.1875 C 544.9375 98.277344 546.949219 98.441406 548.949219 98.6875 C 550.953125 98.933594 552.945312 99.253906 554.921875 99.65625 C 556.898438 100.054688 558.859375 100.53125 560.796875 101.085938 C 562.738281 101.640625 564.65625 102.269531 566.546875 102.972656 C 568.4375 103.675781 570.296875 104.453125 572.128906 105.300781 C 573.960938 106.148438 575.753906 107.066406 577.511719 108.058594 C 579.273438 109.046875 580.988281 110.101562 582.664062 111.226562 C 584.34375 112.347656 585.972656 113.535156 587.554688 114.785156 C 589.140625 116.039062 590.671875 117.347656 592.152344 118.71875 C 593.632812 120.089844 595.058594 121.515625 596.429688 122.996094 C 597.800781 124.480469 599.109375 126.011719 600.359375 127.597656 C 606.21875 126.394531 612.140625 125.742188 618.121094 125.636719 C 624.101562 125.535156 630.039062 125.980469 635.9375 126.976562 C 641.835938 127.972656 647.59375 129.503906 653.207031 131.566406 C 658.820312 133.632812 664.199219 136.191406 669.335938 139.253906 C 705.683594 161.46875 712.558594 199.894531 713.332031 205.738281 C 715.328125 206.261719 717.296875 206.871094 719.242188 207.5625 C 721.1875 208.257812 723.09375 209.035156 724.972656 209.894531 C 726.847656 210.753906 728.683594 211.695312 730.476562 212.714844 C 732.269531 213.734375 734.019531 214.828125 735.71875 216 C 737.417969 217.171875 739.0625 218.414062 740.652344 219.730469 C 742.246094 221.042969 743.777344 222.425781 745.246094 223.871094 C 746.71875 225.320312 748.125 226.828125 749.464844 228.398438 C 750.804688 229.96875 752.074219 231.59375 753.273438 233.273438 C 754.472656 234.953125 755.597656 236.683594 756.644531 238.460938 C 757.695312 240.238281 758.664062 242.058594 759.554688 243.921875 C 760.445312 245.78125 761.253906 247.679688 761.980469 249.613281 C 762.703125 251.546875 763.34375 253.503906 763.902344 255.492188 C 764.457031 257.480469 764.925781 259.492188 765.304688 261.519531 C 765.6875 263.546875 765.980469 265.589844 766.183594 267.644531 C 766.386719 269.699219 766.5 271.757812 766.527344 273.820312 C 766.550781 275.886719 766.488281 277.949219 766.332031 280.007812 C 767.148438 280.285156 767.953125 280.589844 768.75 280.914062 C 769.546875 281.242188 770.335938 281.585938 771.113281 281.957031 C 771.890625 282.324219 772.65625 282.714844 773.414062 283.125 C 774.171875 283.539062 774.914062 283.96875 775.648438 284.421875 C 776.378906 284.875 777.101562 285.347656 777.808594 285.839844 C 778.515625 286.332031 779.207031 286.84375 779.882812 287.371094 C 780.5625 287.902344 781.226562 288.453125 781.875 289.019531 C 782.523438 289.585938 783.152344 290.171875 783.769531 290.773438 C 784.386719 291.375 784.984375 291.992188 785.566406 292.628906 C 786.148438 293.261719 786.710938 293.914062 787.257812 294.582031 C 787.800781 295.246094 788.328125 295.925781 788.835938 296.625 C 789.34375 297.320312 789.832031 298.027344 790.300781 298.75 C 790.769531 299.472656 791.21875 300.207031 791.648438 300.953125 C 792.074219 301.703125 792.484375 302.460938 792.871094 303.230469 C 793.257812 304 793.621094 304.78125 793.964844 305.570312 C 794.308594 306.359375 794.628906 307.160156 794.925781 307.964844 C 795.226562 308.773438 795.503906 309.589844 795.757812 310.414062 C 796.011719 311.234375 796.242188 312.066406 796.449219 312.898438 C 796.660156 313.734375 796.84375 314.578125 797.007812 315.421875 C 797.167969 316.269531 797.304688 317.117188 797.421875 317.972656 C 797.535156 318.824219 797.628906 319.683594 797.695312 320.539062 C 797.761719 321.398438 797.804688 322.257812 797.824219 323.121094 C 797.847656 323.980469 797.84375 324.84375 797.816406 325.703125 C 797.789062 326.566406 797.734375 327.425781 797.660156 328.28125 C 797.585938 329.140625 797.488281 329.996094 797.367188 330.847656 C 797.242188 331.699219 797.097656 332.550781 796.929688 333.394531 C 796.757812 334.238281 796.566406 335.078125 796.351562 335.910156 C 796.136719 336.746094 795.898438 337.574219 795.636719 338.394531 C 795.375 339.214844 795.089844 340.027344 794.785156 340.832031 C 794.480469 341.636719 794.152344 342.433594 793.800781 343.21875 C 793.449219 344.007812 793.078125 344.785156 792.6875 345.550781 C 792.292969 346.316406 791.878906 347.070312 791.445312 347.816406 C 794.09375 350.113281 796.5625 352.59375 798.84375 355.253906 C 801.128906 357.914062 803.207031 360.730469 805.078125 363.695312 C 806.945312 366.664062 808.589844 369.753906 810.003906 372.960938 C 811.417969 376.171875 812.59375 379.46875 813.523438 382.851562 C 814.644531 387.308594 815.34375 391.828125 815.617188 396.417969 C 815.890625 401.003906 815.738281 405.578125 815.152344 410.136719 C 814.566406 414.695312 813.5625 419.160156 812.136719 423.53125 C 810.710938 427.902344 808.894531 432.101562 806.679688 436.128906 C 824.140625 459.601562 827.113281 489.117188 814.265625 510.71875 C 812.457031 513.605469 810.421875 516.328125 808.160156 518.875 C 805.898438 521.425781 803.441406 523.765625 800.789062 525.90625 C 798.136719 528.042969 795.324219 529.945312 792.351562 531.613281 C 789.378906 533.28125 786.292969 534.6875 783.085938 535.839844 C 781.820312 540.082031 780.269531 544.214844 778.429688 548.242188 C 776.589844 552.269531 774.476562 556.148438 772.097656 559.878906 C 769.71875 563.613281 767.089844 567.160156 764.21875 570.527344 C 761.34375 573.894531 758.25 577.042969 754.9375 579.980469 C 737.476562 595.058594 701.90625 613.851562 675.050781 598.257812 C 672.472656 596.628906 670.050781 594.789062 667.789062 592.742188 C 665.527344 590.699219 663.453125 588.476562 661.574219 586.074219 C 659.691406 583.671875 658.03125 581.128906 656.585938 578.441406 C 655.140625 575.753906 653.9375 572.960938 652.972656 570.066406 C 645.066406 579.753906 632.28125 592.089844 614.238281 595.898438 C 585.996094 601.9375 568.761719 582.207031 532.058594 578.398438 C 505.820312 575.652344 488.257812 582.949219 467.503906 589.054688 C 446.75 595.15625 315.152344 633.484375 248.371094 584.46875 C 234.589844 574.457031 204.632812 546.785156 198.113281 474.164062 Z M 198.113281 474.164062 "/><path style="fill:none;stroke-width:4;stroke-linecap:round;stroke-linejoin:round;stroke:#eb586e;stroke-opacity:1;stroke-miterlimit:4;" d="M 263.290106 127.79997 C 264.760495 128.800424 274.289587 135.799972 275.520358 148.590539 C 275.674053 150.34345 275.670422 152.097571 275.510676 153.851692 C 275.35093 155.604604 275.035069 157.329691 274.565512 159.026954 C 274.097166 160.724218 273.479965 162.365833 272.716331 163.9518 C 271.952697 165.538978 271.05352 167.045102 270.020012 168.470174 C 267.67344 165.80391 265.340179 163.16668 263.020232 160.559693 " transform="matrix(3.22778,0,0,3.229003,-164.62378,-164.982913)"/><path style="fill:none;stroke-width:4;stroke-linecap:round;stroke-linejoin:round;stroke:#eb586e;stroke-opacity:1;stroke-miterlimit:4;" d="M 282.400328 194.150507 C 282.540711 195.20056 282.575807 196.254242 282.506826 197.311554 C 282.439054 198.368866 282.265996 199.409241 281.991282 200.43147 C 281.715357 201.454909 281.341406 202.440846 280.870639 203.390491 C 280.398662 204.338926 279.838341 205.232923 279.189675 206.070062 C 274.089905 212.410302 266.069928 211.789706 265.429734 211.730429 " transform="matrix(3.22778,0,0,3.229003,-164.62378,-164.982913)"/><path style="fill:none;stroke-width:4;stroke-linecap:round;stroke-linejoin:round;stroke:#eb586e;stroke-opacity:1;stroke-miterlimit:4;" d="M 128.459625 102.730555 C 128.607269 102.374892 128.764595 102.024068 128.931602 101.678083 C 129.097399 101.332097 129.272877 100.989741 129.456827 100.653434 C 129.641988 100.315917 129.835619 99.984449 130.037722 99.657819 C 130.239825 99.32998 130.450399 99.009399 130.669445 98.693657 C 130.889701 98.377916 131.117218 98.068222 131.351996 97.765788 C 131.587985 97.462143 131.832444 97.164548 132.084165 96.87421 C 132.334676 96.583873 132.594869 96.300794 132.861112 96.023764 C 133.127355 95.746734 133.40207 95.478172 133.682836 95.215659 C 133.963601 94.954355 134.251628 94.6991 134.545706 94.452314 C 134.840994 94.205527 135.142333 93.967208 135.448513 93.736148 C 135.755903 93.506298 136.069344 93.283706 136.388837 93.069582 C 136.708329 92.855459 137.032661 92.649803 137.363045 92.452616 C 137.692219 92.256638 138.027443 92.069128 138.367509 91.890087 C 138.707574 91.711046 139.05248 91.540473 139.402227 91.380787 C 139.750764 91.219892 140.104142 91.068675 140.46115 90.927135 C 140.818158 90.785596 141.178797 90.653734 141.543066 90.530341 C 141.907335 90.408157 142.275235 90.295652 142.644345 90.192824 C 143.014666 90.088786 143.387406 89.995636 143.762568 89.913374 C 144.137729 89.829902 144.51531 89.757318 144.894102 89.693202 C 145.272893 89.630295 145.654106 89.578276 146.035318 89.534726 C 146.41774 89.492385 146.800162 89.459722 147.183795 89.436737 C 147.567427 89.414962 147.95106 89.402864 148.335902 89.400445 C 148.720745 89.398025 149.104378 89.406494 149.48801 89.425849 C 149.871643 89.443995 150.255275 89.471819 150.637697 89.511741 C 151.02012 89.550452 151.400121 89.598842 151.780123 89.658119 C 152.160125 89.717396 152.537707 89.786352 152.914078 89.866194 C 153.289239 89.944827 153.66319 90.034348 154.034721 90.133547 C 154.406251 90.232745 154.774151 90.341622 155.139631 90.460176 C 155.50511 90.57994 155.866959 90.708172 156.226388 90.846083 C 156.584606 90.983993 156.939194 91.131581 157.290151 91.288847 C 157.641108 91.444903 157.987224 91.611847 158.3285 91.787259 C 158.670986 91.962671 159.007421 92.146552 159.340225 92.34011 " transform="matrix(3.22778,0,0,3.229003,-164.62378,-164.982913)"/><path style="fill:none;stroke-width:4;stroke-linecap:round;stroke-linejoin:round;stroke:#eb586e;stroke-opacity:1;stroke-miterlimit:4;" d="M 82.290605 154.999734 C 81.95054 156.000188 79.860529 162.24002 83.210355 167.539885 C 86.869991 173.329695 95.57978 175.739494 103.690521 172.119956 " transform="matrix(3.22778,0,0,3.229003,-164.62378,-164.982913)"/><path style="fill:none;stroke-width:4;stroke-linecap:round;stroke-linejoin:round;stroke:#eb586e;stroke-opacity:1;stroke-miterlimit:4;" d="M 112.379736 197.939408 C 115.880836 194.673114 119.610664 191.693528 123.570429 188.99944 C 131.759833 183.410447 140.410322 177.510551 152.000379 177.079884 C 154.667654 176.992783 157.314355 177.181503 159.942903 177.644832 C 162.571451 178.108162 165.123757 178.836425 167.59982 179.82962 " transform="matrix(3.22778,0,0,3.229003,-164.62378,-164.982913)"/><path style="fill:none;stroke-width:4;stroke-linecap:round;stroke-linejoin:round;stroke:#eb586e;stroke-opacity:1;stroke-miterlimit:4;" d="M 140.119874 179.540493 C 141.773003 177.790001 143.215558 175.881033 144.447539 173.81359 C 145.67831 171.744937 146.669461 169.567407 147.419783 167.279791 C 148.210042 164.849426 151.839423 153.619422 145.580284 143.439471 C 144.476584 141.672043 143.174412 140.064301 141.676188 138.615034 C 140.176753 137.166976 138.524834 135.922155 136.720431 134.88057 " transform="matrix(3.22778,0,0,3.229003,-164.62378,-164.982913)"/><path style="fill:none;stroke-width:4;stroke-linecap:round;stroke-linejoin:round;stroke:#eb586e;stroke-opacity:1;stroke-miterlimit:4;" d="M 107.830605 132.579647 C 118.560213 142.189811 132.029707 141.200245 136.939476 134.88057 C 141.510391 128.990353 137.879799 119.509631 137.549416 118.670072 " transform="matrix(3.22778,0,0,3.229003,-164.62378,-164.982913)"/><path style="fill:none;stroke-width:4;stroke-linecap:round;stroke-linejoin:round;stroke:#eb586e;stroke-opacity:1;stroke-miterlimit:4;" d="M 193.890142 95.43946 C 194.744541 95.290662 195.601361 95.168479 196.463021 95.07291 C 197.324681 94.97734 198.188762 94.907175 199.054053 94.864834 C 199.920554 94.822494 200.787055 94.805557 201.653557 94.816445 C 202.520058 94.827333 203.385349 94.864834 204.25064 94.927741 C 205.11472 94.991857 205.976381 95.082587 206.835621 95.199932 C 207.69486 95.316067 208.54926 95.460026 209.398818 95.629389 C 210.249587 95.798753 211.093094 95.993521 211.931761 96.216113 C 212.769217 96.437495 213.600622 96.684281 214.423556 96.956473 C 215.24649 97.229874 216.059743 97.527469 216.864524 97.84926 C 217.669305 98.17226 218.463194 98.519455 219.246192 98.890845 C 220.029189 99.263444 220.800085 99.657819 221.558879 100.077598 C 222.317672 100.496168 223.063154 100.938932 223.794113 101.403472 C 224.526282 101.868012 225.242719 102.355536 225.944633 102.864836 C 226.646547 103.374136 227.331519 103.904002 228.000758 104.455643 C 228.669997 105.006074 229.321083 105.57707 229.955226 106.168633 C 230.588159 106.760195 231.20415 107.371113 231.799567 108.000177 " transform="matrix(3.22778,0,0,3.229003,-164.62378,-164.982913)"/><path style="fill:none;stroke-width:4;stroke-linecap:round;stroke-linejoin:round;stroke:#eb586e;stroke-opacity:1;stroke-miterlimit:4;" d="M 133.619906 203.269517 C 133.169712 205.139773 132.219707 210.270275 134.989849 214.970109 C 138.810441 221.39987 148.229405 224.360101 157.689516 221.160342 " transform="matrix(3.22778,0,0,3.229003,-164.62378,-164.982913)"/><path style="fill:none;stroke-width:4;stroke-linecap:round;stroke-linejoin:round;stroke:#eb586e;stroke-opacity:1;stroke-miterlimit:4;" d="M 161.249916 206.649527 C 168.76766 205.38656 176.335023 204.926859 183.949583 205.270425 C 203.359934 206.159583 210.439588 211.829628 221.790026 210.769897 C 230.159749 210.000503 241.789744 205.470032 254.789681 188.07036 " transform="matrix(3.22778,0,0,3.229003,-164.62378,-164.982913)"/><path style="fill:none;stroke-width:4;stroke-linecap:round;stroke-linejoin:round;stroke:#eb586e;stroke-opacity:1;stroke-miterlimit:4;" d="M 181.000333 128.91051 C 195.170531 131.990505 200.390111 137.279482 202.320375 141.980527 C 204.800069 148.040108 201.630563 152.639534 202.189674 161.469417 C 202.820187 171.240476 207.57021 179.269511 212.590108 185.320624 " transform="matrix(3.22778,0,0,3.229003,-164.62378,-164.982913)"/><path style="fill:none;stroke-width:4;stroke-linecap:round;stroke-linejoin:round;stroke:#eb586e;stroke-opacity:1;stroke-miterlimit:4;" d="M 231.419565 173.62971 C 231.256188 174.953164 231.154531 176.281457 231.114595 177.614589 C 231.075869 178.947721 231.100073 180.278434 231.185997 181.609146 C 231.273131 182.939859 231.421985 184.263313 231.63377 185.580718 C 231.844344 186.896914 232.117848 188.201012 232.451863 189.491803 C 232.785877 190.782594 233.180401 192.055239 233.635436 193.308529 C 234.089259 194.561818 234.601173 195.792122 235.172386 196.997022 C 235.742389 198.201922 236.368061 199.377788 237.049402 200.52462 C 237.730743 201.671452 238.464122 202.783202 239.24954 203.859869 " transform="matrix(3.22778,0,0,3.229003,-164.62378,-164.982913)"/><path style="fill:none;stroke-width:4;stroke-linecap:round;stroke-linejoin:round;stroke:#eb586e;stroke-opacity:1;stroke-miterlimit:4;" d="M 105.22021 159.710457 C 104.145555 162.4239 103.638482 165.241382 103.700202 168.160481 C 103.730457 169.264973 103.841795 170.362206 104.034217 171.45097 C 104.226638 172.538525 104.497722 173.607934 104.847469 174.655568 C 105.197216 175.704412 105.621995 176.721802 106.121807 177.707739 C 106.621618 178.693676 107.190411 179.638482 107.830605 180.539737 " transform="matrix(3.22778,0,0,3.229003,-164.62378,-164.982913)"/><path style="fill:none;stroke-width:4;stroke-linecap:round;stroke-linejoin:round;stroke:#eb586e;stroke-opacity:1;stroke-miterlimit:4;" d="M 167.59982 152.37944 L 182.039892 157.709549 " transform="matrix(3.22778,0,0,3.229003,-164.62378,-164.982913)"/><path style="fill:none;stroke-width:4;stroke-linecap:round;stroke-linejoin:round;stroke:#eb586e;stroke-opacity:1;stroke-miterlimit:4;" d="M 93.609579 122.340419 C 93.609579 122.340419 85.049855 127.230183 89.940261 134.88057 " transform="matrix(3.22778,0,0,3.229003,-164.62378,-164.982913)"/><path style="fill:none;stroke-width:4;stroke-linecap:round;stroke-linejoin:round;stroke:#eb586e;stroke-opacity:1;stroke-miterlimit:4;" d="M 179.9995 106.139599 C 179.826441 106.004108 179.648542 105.874666 179.465803 105.750063 C 179.284273 105.62546 179.097903 105.506906 178.907902 105.3944 C 178.719111 105.281894 178.52548 105.175437 178.329428 105.075029 C 178.132165 104.974621 177.933693 104.880261 177.73159 104.79316 C 177.528277 104.704849 177.323754 104.623796 177.1156 104.548793 C 176.908656 104.474998 176.699292 104.406043 176.487508 104.345556 C 176.275723 104.28386 176.061518 104.229422 175.846103 104.181032 C 175.630688 104.133852 175.414063 104.092721 175.196227 104.058848 C 174.978392 104.023766 174.759346 103.997152 174.5403 103.976586 C 174.320045 103.95723 174.100999 103.943923 173.879533 103.936665 C 173.659277 103.930616 173.439021 103.931826 173.218765 103.939084 C 172.998509 103.947552 172.778253 103.962069 172.559208 103.983845 C 172.338952 104.00562 172.121116 104.033444 171.903281 104.069736 C 171.685445 104.104818 171.46882 104.147159 171.254615 104.196759 C 171.0392 104.245148 170.826206 104.302006 170.614421 104.364912 C 170.402637 104.427819 170.193272 104.496774 169.986329 104.572987 C 169.779385 104.649201 169.574862 104.731463 169.373969 104.820984 C 169.171866 104.909295 168.973394 105.004864 168.777342 105.106482 C 168.58129 105.2081 168.388869 105.315767 168.200078 105.429482 C 168.011287 105.543198 167.826127 105.662962 167.644597 105.788775 C 167.463068 105.914588 167.286379 106.045239 167.113321 106.18194 C 166.940263 106.31985 166.772045 106.461389 166.607458 106.608978 C 166.444082 106.756566 166.284336 106.908993 166.130641 107.066259 C 165.975735 107.224734 165.826881 107.386839 165.682868 107.553783 C 165.538854 107.720727 165.400892 107.89251 165.26777 108.067922 C 165.134648 108.243334 165.006368 108.423586 164.885348 108.607466 C 164.763118 108.791346 164.648149 108.978856 164.538021 109.169994 C 164.427893 109.362343 164.325027 109.555901 164.227001 109.754298 C 164.130185 109.952695 164.03821 110.153512 163.953496 110.356748 C 163.868782 110.559984 163.79133 110.766849 163.718718 110.974924 C 163.647316 111.182999 163.583176 111.394704 163.523876 111.606408 C 163.465787 111.819322 163.414958 112.033446 163.370181 112.249989 " transform="matrix(3.22778,0,0,3.229003,-164.62378,-164.982913)"/><path style="fill:none;stroke-width:4;stroke-linecap:round;stroke-linejoin:round;stroke:#eb586e;stroke-opacity:1;stroke-miterlimit:4;" d="M 224.769532 120.510085 C 224.769532 120.510085 229.969749 133.350251 243.419879 122.340419 " transform="matrix(3.22778,0,0,3.229003,-164.62378,-164.982913)"/><path style="fill:none;stroke-width:4;stroke-linecap:round;stroke-linejoin:round;stroke:#eb586e;stroke-opacity:1;stroke-miterlimit:4;" d="M 184.720479 175.839902 C 186.319149 177.002461 187.764124 178.333174 189.054194 179.83204 C 190.345475 181.329696 191.446754 182.955585 192.360453 184.709706 C 196.94952 193.630319 194.549699 202.42028 193.890142 204.579664 " transform="matrix(3.22778,0,0,3.229003,-164.62378,-164.982913)"/><path style="fill:none;stroke-width:4;stroke-linecap:round;stroke-linejoin:round;stroke:#eb586e;stroke-opacity:1;stroke-miterlimit:4;" d="M 160.100229 218.179546 C 159.711755 218.555775 159.364429 218.967086 159.058249 219.41348 C 158.753279 219.858663 158.495507 220.331671 158.286143 220.830084 C 158.075569 221.328496 157.918243 221.842635 157.812956 222.37371 C 157.707669 222.903576 157.656841 223.43949 157.660471 223.980243 C 157.690726 224.393974 157.753656 224.802865 157.846841 225.208128 C 157.940027 225.612181 158.062257 226.007765 158.215952 226.393672 C 158.368436 226.779578 158.549966 227.152178 158.75933 227.510261 C 158.968694 227.869553 159.204683 228.209489 159.466085 228.53249 C 159.726278 228.85549 160.010674 229.156715 160.316854 229.436164 C 160.624244 229.716824 160.949787 229.970869 161.295903 230.201929 C 161.640809 230.431779 162.001448 230.635016 162.377819 230.810428 C 162.754191 230.987049 163.141454 231.133428 163.539609 231.249563 " transform="matrix(3.22778,0,0,3.229003,-164.62378,-164.982913)"/><path style="fill:none;stroke-width:4;stroke-linecap:round;stroke-linejoin:round;stroke:#eb586e;stroke-opacity:1;stroke-miterlimit:4;" d="M 232.150524 126.68943 C 232.530526 127.420112 236.450354 135.080177 232.409506 143.129778 C 227.999548 151.940305 218.2502 152.870594 217.739497 152.910515 " transform="matrix(3.22778,0,0,3.229003,-164.62378,-164.982913)"/><path style="fill:none;stroke-width:4;stroke-linecap:round;stroke-linejoin:round;stroke:#eb586e;stroke-opacity:1;stroke-miterlimit:4;" d="M 245.629699 149.090161 C 246.688622 150.349499 247.530919 151.738279 248.157801 153.26013 C 248.783473 154.780771 249.164685 156.36069 249.300227 157.999886 C 249.830293 165.270416 244.880587 170.139614 244.139946 170.840052 " transform="matrix(3.22778,0,0,3.229003,-164.62378,-164.982913)"/><path style=" stroke:none;fill-rule:nonzero;fill:#000000;fill-opacity:0.08;" d="M 517.4375 648.726562 C 515.109375 637.582031 513.527344 626.335938 512.695312 614.984375 C 511.816406 602.679688 511.816406 590.378906 512.695312 578.074219 C 515.308594 577.847656 518.148438 577.71875 521.183594 577.71875 C 524.214844 577.71875 527.636719 577.914062 530.511719 578.171875 C 527.9375 583.652344 525.722656 589.269531 523.867188 595.035156 C 522.011719 600.796875 520.535156 606.652344 519.429688 612.605469 C 518.328125 618.558594 517.609375 624.558594 517.277344 630.601562 C 516.941406 636.648438 516.996094 642.6875 517.4375 648.726562 Z M 517.4375 648.726562 "/></g></svg>